<svg xmlns="http://www.w3.org/2000/svg" viewBox="0 0 100 100" id="hijab">
  <path fill="yellow" d="m4.633 87.108 32.637 8.251a1.465 1.465 0 0 0 .628.023l19.978-3.525c.276-.049.534-.174.742-.362l5.791-5.209 30.549.868h.043a1.499 1.499 0 0 0 1.101-2.518L77.128 64.102V41.696c0-.081-.013-.16-.027-.239.014-.454.027-.909.027-1.367 0-19.572-12.478-35.495-27.814-35.495-15.338 0-27.815 15.923-27.815 35.495 0 8.355 2.279 16.04 6.079 22.11L3.969 84.565a1.498 1.498 0 0 0 .664 2.543zM49.33 72.584l-.017.001-.024-.001c-.349 0-.696-.017-1.044-.037-10.743-.744-19.31-12.632-19.31-27.141 0-14.986 9.142-27.178 20.379-27.178S69.693 30.42 69.693 45.406c-.001 14.98-9.133 27.167-20.363 27.178zm-.017-64.989c13.683 0 24.814 14.577 24.814 32.495 0 .521-.011 1.039-.03 1.554v.001c-.016.455-.044.906-.074 1.356-.006.095-.01.19-.017.284-.025.335-.06.665-.092.997-.021.217-.039.435-.063.651-.024.212-.055.42-.082.63-.044.34-.087.68-.139 1.016-.014.091-.031.181-.046.273a39.521 39.521 0 0 1-1.885 7.252c.644-2.756.994-5.674.994-8.697 0-16.64-10.487-30.178-23.379-30.178S25.935 28.767 25.935 45.407c0 3.026.351 5.947.996 8.705-1.558-4.247-2.432-9.003-2.432-14.022C24.498 22.172 35.63 7.595 49.313 7.595zM28.869 65.109v8.976c0 .333.111.657.315.92l6.035 7.771a1.497 1.497 0 0 0 2.105.265 1.5 1.5 0 0 0 .265-2.104l-5.72-7.365v-5.85c1.668 1.716 3.475 3.18 5.391 4.356.032.02.065.037.097.056.369.224.74.442 1.116.645.26.141.526.269.79.4.153.076.304.159.459.231a22.53 22.53 0 0 0 8.437 2.139c.384.02.768.037 1.154.037h.001c.599 0 1.192-.033 1.781-.081.18-.014.358-.034.537-.052.432-.046.861-.105 1.288-.175.177-.029.354-.053.53-.086.521-.1 1.038-.218 1.55-.354.267-.071.53-.154.795-.235.127-.039.255-.072.381-.112l-.949 1.836-11.005 2.243a1.5 1.5 0 1 0 .6 2.94l11.707-2.387a1.504 1.504 0 0 0 1.033-.781l2.976-5.759c5.875-3.298 10.691-9.107 13.591-16.403v8.51c0 .007.003.012.004.019 0 .012-.004.023-.004.035v6.815l-4.05 4.498a1.5 1.5 0 0 0 2.228 2.008l4.436-4.926c.248-.276.386-.633.386-1.004v-3.612L91.48 84.054l-27.585-.784a1.452 1.452 0 0 0-1.046.384l-5.918 5.324-19.238 3.395-29.682-7.505 20.858-19.759z"></path>
</svg>
